<svg xmlns="http://www.w3.org/2000/svg" viewBox="4.41 11.70 75.89 75.89" role="img" aria-label="Changemappers">
  <circle cx="61.70" cy="34.83" r="1.85" fill="#0c9391"/>
  <circle cx="54.12" cy="30.53" r="2.86" fill="#0d9486"/>
  <circle cx="45.32" cy="31.59" r="4.25" fill="#0a957e"/>
  <circle cx="37.80" cy="35.40" r="4.08" fill="#099577"/>
  <circle cx="32.74" cy="41.30" r="5.00" fill="#079573"/>
  <circle cx="32.16" cy="50.20" r="4.61" fill="#079572"/>
  <circle cx="31.82" cy="58.37" r="5.00" fill="#079572"/>
  <circle cx="38.68" cy="64.82" r="4.13" fill="#09957a"/>
  <circle cx="46.20" cy="68.11" r="3.58" fill="#0b9482"/>
  <circle cx="54.07" cy="69.24" r="3.48" fill="#0c948c"/>
  <circle cx="61.77" cy="64.40" r="2.12" fill="#0b9398"/>
  <circle cx="69.35" cy="25.56" r="1.69" fill="#0b939b"/>
  <circle cx="58.27" cy="20.87" r="2.45" fill="#0d948a"/>
  <circle cx="47.95" cy="19.33" r="3.64" fill="#0b957f"/>
  <circle cx="35.86" cy="21.86" r="3.43" fill="#089574"/>
  <circle cx="27.03" cy="28.11" r="3.95" fill="#06966d"/>
  <circle cx="21.90" cy="38.84" r="3.34" fill="#05966a"/>
  <circle cx="18.27" cy="49.14" r="5.00" fill="#059669"/>
  <circle cx="22.18" cy="60.96" r="3.64" fill="#05966a"/>
  <circle cx="27.57" cy="71.54" r="4.02" fill="#07966f"/>
  <circle cx="36.99" cy="78.55" r="3.97" fill="#099579"/>
  <circle cx="48.11" cy="80.49" r="3.09" fill="#0c9486"/>
  <circle cx="58.78" cy="80.11" r="2.81" fill="#0b9396"/>
  <circle cx="69.45" cy="74.65" r="1.98" fill="#0992a7"/>
  <circle cx="25.55" cy="44.80" r="4.75" fill="#06966d"/>
  <circle cx="25.49" cy="57.03" r="3.43" fill="#06966d"/>
</svg>
